<?xml version="1.0" standalone="no"?>
<!DOCTYPE svg PUBLIC "-//W3C//DTD SVG 20010904//EN"
 "http://www.w3.org/TR/2001/REC-SVG-20010904/DTD/svg10.dtd">
<svg version="1.0" xmlns="http://www.w3.org/2000/svg"
 width="2000.000000pt" height="580.000000pt" viewBox="0 0 2000.000000 580.000000"
 preserveAspectRatio="xMidYMid meet">

<g transform="translate(0.000000,580.000000) scale(0.100000,-0.100000)"
fill="#000000" stroke="none">
<path d="M7170 5777 c-194 -45 -290 -183 -290 -417 0 -103 15 -171 53 -243 62
-119 162 -175 328 -184 179 -10 300 35 380 141 58 76 74 140 74 286 0 139 -9
179 -57 260 -65 107 -170 160 -333 166 -59 2 -122 -1 -155 -9z"/>
<path d="M13768 5326 l-308 -40 0 -548 0 -548 -340 0 -340 0 0 -275 0 -275
340 0 339 0 4 -1297 c3 -1176 5 -1306 20 -1383 55 -269 143 -462 276 -603 54
-58 158 -132 247 -176 368 -184 1008 -199 1524 -35 122 38 270 101 270 115 0
4 14 135 30 290 17 155 30 283 28 284 -2 1 -48 -17 -103 -41 -432 -185 -990
-217 -1293 -73 -45 22 -89 54 -133 98 -112 112 -170 257 -189 476 -6 63 -10
585 -10 1228 l0 1117 815 0 c777 0 815 1 815 18 0 19 46 429 55 495 l5 37
-850 0 -850 0 0 65 c0 86 18 835 24 993 l5 122 -37 -1 c-20 -1 -175 -20 -344
-43z"/>
<path d="M17930 4354 c-488 -44 -849 -198 -1115 -475 -250 -261 -393 -598
-447 -1054 -18 -153 -18 -1117 0 -1270 105 -887 571 -1393 1397 -1516 421 -62
903 -18 1230 112 213 85 360 184 516 346 235 245 372 555 436 988 16 105 18
194 18 710 0 561 -2 597 -23 730 -76 479 -258 831 -550 1067 -229 184 -478
286 -842 344 -92 15 -518 27 -620 18z m530 -579 c220 -48 353 -118 495 -260
167 -167 255 -351 307 -645 19 -108 19 -1252 0 -1360 -75 -422 -260 -694 -570
-837 -295 -137 -778 -133 -1071 7 -306 147 -485 412 -558 825 -16 88 -18 170
-18 690 0 568 1 594 22 705 99 515 384 809 858 885 119 19 429 13 535 -10z"/>
<path d="M1735 4324 c-342 -53 -628 -228 -807 -495 -75 -112 -149 -269 -186
-394 -45 -154 -56 -140 -49 61 4 93 9 284 12 424 3 140 8 272 10 293 l5 37
-345 0 -345 0 0 -2065 0 -2065 345 0 345 0 0 1428 c0 1610 -8 1441 78 1625
136 290 363 484 662 565 88 24 111 26 300 26 196 0 209 -1 295 -28 119 -36
192 -76 272 -150 146 -134 232 -326 268 -604 13 -95 15 -328 15 -1488 l0
-1374 345 0 346 0 -1 1434 -1 1433 35 92 c111 288 320 513 573 615 145 60 213
71 428 70 174 0 210 -3 278 -22 262 -73 442 -259 517 -534 56 -207 53 -114 57
-1661 l4 -1427 345 0 345 0 -4 1477 c-3 1303 -5 1490 -19 1583 -64 413 -177
672 -377 863 -94 89 -146 126 -253 177 -194 92 -388 125 -693 117 -225 -6
-333 -22 -485 -74 -361 -123 -646 -426 -772 -820 -18 -56 -36 -103 -39 -103
-4 0 -15 33 -24 73 -63 259 -174 473 -325 625 -157 157 -350 248 -610 287
-120 19 -423 18 -545 -1z"/>
<path d="M10615 4334 c-106 -16 -255 -48 -322 -70 -99 -33 -270 -121 -348
-179 -208 -156 -373 -393 -457 -657 -17 -54 -35 -98 -41 -98 -10 0 -7 243 10
728 l6 192 -341 0 -342 0 0 -2065 0 -2065 340 0 340 0 0 1415 0 1416 36 92
c128 334 373 570 693 671 144 46 263 59 461 53 209 -6 300 -26 440 -94 79 -38
108 -59 180 -132 98 -99 146 -179 195 -326 73 -215 68 -113 72 -1682 l4 -1413
345 0 345 0 -4 1458 c-3 1559 -2 1505 -53 1757 -95 468 -351 786 -746 924
-167 58 -277 74 -543 76 -132 2 -253 1 -270 -1z"/>
<path d="M6950 2185 l0 -2065 345 0 345 0 0 2065 0 2065 -345 0 -345 0 0
-2065z"/>
</g>
</svg>
